<svg aria-hidden="true" style="position: absolute; width: 0; height: 0; overflow: hidden;" version="1.1" xmlns="http://www.w3.org/2000/svg" xmlns:xlink="http://www.w3.org/1999/xlink">
<defs>
<symbol id="icon-king-black" viewBox="0 0 32 32">
<path d="M15.685 0.077c-0.3 0.152-0.368 0.355-0.368 1.095v0.647h-1.858l-0.2 0.2c-0.389 0.389-0.19 1.017 0.357 1.126 0.117 0.023 0.548 0.043 0.957 0.043h0.744v1.165c0 1.050-0.012 1.17-0.12 1.205-0.987 0.325-1.893 1.205-2.453 2.386-0.365 0.769-0.471 1.343-0.415 2.255 0.023 0.378 0.063 0.759 0.087 0.846 0.039 0.137-0.045 0.1-0.597-0.264-2.567-1.689-5.596-2.191-7.771-1.288-1.784 0.74-3.030 2.187-3.704 4.302-0.169 0.532-0.185 0.672-0.182 1.642 0.004 0.974 0.020 1.108 0.196 1.642 0.609 1.84 2.025 3.519 4.187 4.965 0.691 0.462 0.779 0.501 0.779 0.348 0-0.051 0.061-0.171 0.135-0.266l0.136-0.172-0.632-0.397c-1.746-1.098-3.024-2.403-3.679-3.755-0.742-1.532-0.767-3.193-0.071-4.727 1.261-2.781 4.458-3.756 8.166-2.492 2.463 0.84 4.893 2.711 6.282 4.834l0.323 0.494 0.351-0.54c1.683-2.59 4.431-4.539 7.294-5.174 0.263-0.059 0.895-0.123 1.403-0.144 0.78-0.031 1.035-0.014 1.641 0.111 1.589 0.328 2.869 1.134 3.821 2.405 0.695 0.927 0.948 2.595 0.596 3.928-0.123 0.467-0.49 1.275-0.807 1.779-0.775 1.233-2.292 2.641-3.968 3.683-0.498 0.309-0.53 0.345-0.53 0.569 0 0.311-0.094 0.478-0.341 0.606-0.298 0.154-0.398 0.134-1.173-0.234-4.833-2.295-12.766-2.268-17.576 0.058-0.318 0.154-0.66 0.279-0.76 0.279-0.21 0-0.528-0.226-0.613-0.437-0.035-0.086-0.058 0.463-0.058 1.361 0 1.034 0.021 1.454 0.066 1.341 0.089-0.223 0.196-0.297 0.95-0.659 1.687-0.81 3.576-1.319 6.127-1.65 1.333-0.173 4.994-0.174 6.296-0.002 2.65 0.352 4.623 0.899 6.325 1.755 0.298 0.15 0.59 0.342 0.65 0.426 0.1 0.142 0.108 0.059 0.108-1.117v-1.271l0.565-0.345c4.625-2.829 6.511-6.555 4.943-9.77-0.675-1.384-2.185-2.745-3.694-3.329-1.656-0.641-3.666-0.647-5.551-0.016-0.527 0.176-1.566 0.671-2.114 1.009l-0.274 0.168-0-0.866c-0.001-0.978-0.069-1.254-0.537-2.167-0.474-0.926-1.469-1.832-2.32-2.112-0.108-0.036-0.12-0.156-0.12-1.205v-1.165h0.744c0.409 0 0.84-0.019 0.957-0.043 0.547-0.109 0.746-0.737 0.357-1.126l-0.2-0.2h-1.858v-0.683c0-0.65-0.009-0.693-0.188-0.89-0.23-0.253-0.525-0.314-0.812-0.169zM16.545 6.437c0.892 0.122 1.794 1.096 2.129 2.298 0.12 0.43 0.106 1.253-0.030 1.775-0.263 1.009-0.965 2.139-2.044 3.289l-0.599 0.638-0.599-0.638c-1.448-1.544-2.16-2.946-2.159-4.247 0.001-1.538 1.054-2.96 2.326-3.14 0.219-0.031 0.459-0.047 0.535-0.037s0.274 0.038 0.441 0.061zM15.762 7.771c-0.475 0.108-0.822 0.482-1.031 1.11-0.193 0.584-0.115 1.273 0.226 1.976 0.258 0.532 0.946 1.571 1.038 1.569 0.1-0.002 0.791-1.033 1.047-1.561 0.237-0.49 0.288-0.67 0.313-1.111 0.073-1.253-0.681-2.191-1.594-1.982zM5.242 11.495c-1.957 0.453-3.134 1.908-3.131 3.872 0.003 1.366 0.492 2.365 1.781 3.638 0.592 0.584 1.63 1.333 2.457 1.775 0.236 0.126 0.462 0.3 0.502 0.387 0.088 0.194 0.073 0.194 0.572-0.009 1.585-0.644 4.056-1.12 6.66-1.281l1.269-0.079-0.021-1.067c-0.021-1.058-0.023-1.072-0.26-1.579-0.526-1.123-1.483-2.304-2.661-3.284-0.683-0.568-0.996-0.781-1.802-1.228-0.884-0.49-1.563-0.76-2.612-1.039-0.666-0.177-2.191-0.235-2.753-0.105zM24.419 11.442c-1.067 0.196-1.798 0.441-2.765 0.926-1.975 0.99-3.728 2.734-4.632 4.609l-0.33 0.684-0.020 1.103-0.020 1.102 0.821 0.043c2.169 0.112 4.56 0.609 6.424 1.335l0.539 0.21 0.283-0.144c1.042-0.531 2.43-1.547 3.297-2.414 1.506-1.506 2.097-3 1.778-4.501-0.148-0.696-0.282-0.924-0.925-1.565-0.47-0.469-0.707-0.646-1.168-0.872-0.318-0.156-0.763-0.334-0.989-0.395-0.399-0.108-1.924-0.189-2.293-0.121zM13.675 24.449c-2.69 0.2-5.127 0.804-7.115 1.76-0.281 0.135-0.552 0.246-0.602 0.246-0.177 0-0.493-0.209-0.593-0.394-0.093-0.17-0.102-0.052-0.102 1.318-0 1.347 0.010 1.483 0.095 1.286 0.076-0.175 0.219-0.282 0.701-0.524 2.766-1.389 6.572-2.055 10.751-1.879 2.261 0.095 4.154 0.41 6.069 1.010 1.29 0.404 2.528 0.976 2.764 1.276l0.144 0.183-0.002-1.395c-0.002-1.349-0.006-1.389-0.12-1.205-0.069 0.111-0.221 0.221-0.365 0.265-0.229 0.069-0.305 0.047-1.061-0.308-1.854-0.869-4.082-1.413-6.623-1.616-0.807-0.065-3.201-0.079-3.942-0.024zM14.804 27.598c-3.020 0.090-5.724 0.652-7.83 1.627-0.45 0.208-0.905 0.38-1.011 0.381-0.19 0.002-0.188 0.005 0.081 0.173 1.029 0.643 2.948 1.356 4.688 1.74 2.362 0.521 5.812 0.635 8.144 0.268 2.239-0.353 3.762-0.814 5.475-1.656l0.992-0.488-0.274-0.041c-0.151-0.023-0.489-0.151-0.753-0.285-1.357-0.689-3.351-1.244-5.468-1.521-0.72-0.094-1.17-0.124-2.984-0.197-0.244-0.010-0.722-0.010-1.060 0z"></path>
</symbol>
<symbol id="icon-king-white" viewBox="0 0 32 32">
<path d="M15.685 0.077c-0.3 0.152-0.368 0.355-0.368 1.096v0.647h-1.859l-0.2 0.2c-0.389 0.389-0.19 1.017 0.357 1.126 0.117 0.023 0.548 0.043 0.958 0.043h0.745v1.166c0 1.050-0.012 1.17-0.12 1.206-0.988 0.325-1.893 1.206-2.454 2.387-0.366 0.77-0.471 1.344-0.415 2.256 0.023 0.378 0.063 0.759 0.087 0.846 0.039 0.137-0.045 0.1-0.598-0.264-2.569-1.689-5.598-2.192-7.774-1.289-1.785 0.741-3.031 2.188-3.706 4.303-0.169 0.532-0.185 0.672-0.182 1.643 0.004 0.974 0.020 1.109 0.196 1.643 0.381 1.151 0.933 2.037 1.906 3.055 0.732 0.767 1.467 1.378 2.361 1.964l0.633 0.415v3.246c0 2.764 0.015 3.279 0.104 3.466 0.223 0.469 2.255 1.446 4.122 1.983 1.803 0.518 3.277 0.727 5.473 0.776 3.032 0.068 5.35-0.273 7.827-1.154 0.799-0.284 2.488-1.118 2.776-1.371l0.237-0.208v-6.263l0.565-0.345c4.627-2.83 6.513-6.558 4.945-9.774-0.675-1.385-2.186-2.746-3.695-3.33-1.657-0.641-3.667-0.647-5.553-0.016-0.528 0.176-1.566 0.672-2.115 1.009l-0.274 0.168-0-0.866c-0.001-0.979-0.069-1.254-0.537-2.167-0.475-0.926-1.47-1.832-2.321-2.113-0.108-0.036-0.12-0.156-0.12-1.206v-1.166h0.745c0.41 0 0.84-0.019 0.958-0.043 0.547-0.109 0.746-0.737 0.357-1.126l-0.2-0.2h-1.859v-0.684c0-0.65-0.009-0.694-0.188-0.89-0.23-0.253-0.526-0.315-0.813-0.169zM16.481 6.927c0.535 0.159 1.113 0.757 1.512 1.564l0.303 0.612-0.008 0.86c-0.012 1.221-0.233 2.059-0.672 2.547-0.476 0.53-0.908 1.127-1.317 1.822-0.205 0.348-0.382 0.633-0.393 0.633s-0.161-0.212-0.334-0.471c-0.173-0.26-0.516-0.72-0.763-1.024-0.504-0.618-0.624-0.882-0.901-1.962-0.157-0.615-0.193-0.905-0.196-1.579l-0.004-0.826 0.303-0.611c0.386-0.781 0.979-1.405 1.483-1.56 0.438-0.134 0.547-0.135 0.988-0.004zM7.82 10.562c2.815 0.543 5.853 2.972 7.283 5.821l0.214 0.426v3.016l-0.257 0.001c-0.505 0.001-2.257 0.142-3.064 0.245-1.703 0.219-3.494 0.661-4.832 1.194-0.375 0.15-0.723 0.272-0.772 0.272-0.269 0-1.954-1.177-2.726-1.904-1.734-1.632-2.456-3.413-2.078-5.121 0.131-0.589 0.576-1.607 0.925-2.114 1.111-1.614 3.025-2.277 5.306-1.836zM26.339 10.591c1.871 0.426 3.578 1.983 4.004 3.652 0.132 0.516 0.132 1.45 0.001 2.005-0.408 1.731-2.351 3.857-4.894 5.357l-0.348 0.205-0.393-0.198c-1.714-0.865-4.657-1.556-7.219-1.695l-0.805-0.044 0.001-1.581 0.001-1.581 0.239-0.582c0.553-1.344 1.582-2.731 2.733-3.684 2.050-1.695 4.45-2.362 6.678-1.854zM18.158 21.332c2.154 0.225 4.354 0.768 5.835 1.44l0.429 0.195v0.826c0 0.454-0.025 0.826-0.057 0.826s-0.255-0.081-0.496-0.18c-1.302-0.533-3.091-0.96-5.164-1.236-1.303-0.173-4.965-0.172-6.299 0.002-1.934 0.252-3.621 0.641-4.955 1.143-0.395 0.149-0.743 0.27-0.774 0.27s-0.056-0.365-0.056-0.811v-0.812l0.462-0.207c1.809-0.809 4.045-1.326 6.59-1.523 0.936-0.073 3.52-0.034 4.484 0.067zM17.618 24.483c2.371 0.19 5.035 0.818 6.405 1.51l0.4 0.202v0.821c0 0.451-0.010 0.821-0.022 0.821s-0.22-0.081-0.462-0.18c-1.876-0.768-4.471-1.271-7.127-1.383-3.573-0.15-6.878 0.313-9.518 1.332-0.328 0.127-0.613 0.23-0.633 0.23s-0.037-0.369-0.037-0.82v-0.82l0.195-0.101c1.478-0.764 4.344-1.448 6.856-1.635 0.742-0.056 3.136-0.041 3.944 0.024zM17.175 27.664c1.303 0.055 2.929 0.292 4.27 0.623 0.601 0.148 2.088 0.657 2.088 0.713 0 0.163-2.208 0.921-3.458 1.187-1.761 0.375-2.242 0.419-4.553 0.417-1.888-0.002-2.276-0.021-3.114-0.154-1.649-0.262-3.443-0.761-4.554-1.266l-0.376-0.171 0.336-0.146c0.857-0.372 2.839-0.848 4.443-1.067 0.882-0.12 2.9-0.229 3.608-0.195 0.245 0.012 0.834 0.038 1.31 0.058z"></path>
</symbol>
<symbol id="icon-knight-black" viewBox="0 0 32 32">
<path d="M14.868 0.014c-0.228 0.051-0.967 0.612-1.409 1.068-0.393 0.406-1.208 1.536-1.208 1.676 0 0.038-0.253 0.069-0.571 0.069-0.519 0-0.579-0.015-0.657-0.161-0.373-0.704-1.573-1.972-2.085-2.205-0.421-0.191-0.932-0.184-1.291 0.018-0.432 0.243-0.489 0.414-0.497 1.506-0.007 0.969 0.049 1.318 0.311 1.932 0.125 0.292 0.132 0.371 0.056 0.609-0.14 0.435-0.694 1.323-1.184 1.896-0.923 1.078-4.37 7.247-5.535 9.904-0.204 0.466-0.472 1.159-0.596 1.541-0.216 0.667-0.223 0.729-0.183 1.555 0.091 1.871 0.68 3.112 1.744 3.67 0.62 0.326 1.066 0.406 2 0.36 0.805-0.040 0.806-0.040 0.849 0.132 0.069 0.276 0.46 0.666 0.746 0.746 0.585 0.162 1.341 0.004 1.894-0.398 0.188-0.136 0.707-0.707 1.154-1.268 0.964-1.21 1.404-1.637 2.411-2.345 2.101-1.476 3.224-2.375 4.688-3.752l0.926-0.87-0.050 0.608c-0.101 1.229-0.484 2.604-1.022 3.674-0.584 1.161-0.979 1.647-3.037 3.743-1.943 1.978-2.431 2.594-2.928 3.694-0.607 1.343-0.989 3.588-0.714 4.193 0.189 0.415-0.496 0.392 11.665 0.392h11.184l0.468-0.419-0.004-3.034c-0.005-3.501-0.111-5.297-0.47-7.98-0.509-3.795-1.309-6.68-2.569-9.254-1.253-2.562-2.852-4.444-4.986-5.873-1.802-1.206-4.214-2.087-6.605-2.411l-0.658-0.089-0.047-0.433c-0.136-1.24-0.511-2.101-1.029-2.36-0.232-0.117-0.571-0.175-0.762-0.132zM19.771 4.231c1.929 0.454 3.742 1.48 5.243 2.968 3.364 3.335 5.307 8.917 5.801 16.664 0.079 1.239 0.087 6.19 0.011 7.241l-0.046 0.645-2.198 0.040 0.043-0.199c0.098-0.458 0.169-4.965 0.108-6.854-0.22-6.834-1.37-11.159-3.945-14.84-0.6-0.858-2.008-2.262-2.791-2.784-0.815-0.543-2.156-1.185-3.172-1.519l-0.827-0.272 0.138-0.402c0.076-0.221 0.172-0.527 0.213-0.679 0.075-0.278 0.075-0.278 0.375-0.231 0.165 0.026 0.636 0.125 1.047 0.222zM9.853 6.954c0.303 0.144 0.454 0.374 0.509 0.775 0.089 0.646-0.421 1.8-1.103 2.496-0.398 0.407-0.692 0.557-1.087 0.557-0.236 0-0.348-0.049-0.562-0.246-0.266-0.244-0.268-0.249-0.268-0.812 0-0.522 0.024-0.614 0.306-1.184 0.483-0.974 1.225-1.69 1.762-1.698 0.113-0.002 0.312 0.048 0.444 0.111zM4.163 17.35c0.253 0.127 0.471 0.414 0.573 0.754 0.241 0.803-0.636 1.675-1.442 1.433-0.394-0.118-0.688-0.387-0.831-0.761-0.387-1.014 0.702-1.927 1.699-1.426z"></path>
</symbol>
<symbol id="icon-knight-white" viewBox="0 0 32 32">
<path d="M14.868 0.014c-0.228 0.051-0.967 0.612-1.409 1.068-0.393 0.406-1.208 1.536-1.208 1.676 0 0.038-0.253 0.069-0.571 0.069-0.519 0-0.579-0.015-0.657-0.161-0.373-0.704-1.573-1.972-2.085-2.205-0.421-0.191-0.932-0.184-1.291 0.018-0.432 0.243-0.489 0.414-0.497 1.506-0.007 0.969 0.049 1.318 0.311 1.932 0.125 0.292 0.132 0.371 0.056 0.609-0.14 0.435-0.694 1.323-1.184 1.896-0.923 1.078-4.37 7.247-5.535 9.904-0.204 0.466-0.472 1.159-0.596 1.541-0.216 0.667-0.223 0.729-0.183 1.555 0.091 1.871 0.68 3.112 1.744 3.67 0.62 0.326 1.066 0.406 2 0.36 0.805-0.040 0.806-0.040 0.849 0.132 0.069 0.276 0.46 0.666 0.746 0.746 0.585 0.162 1.341 0.004 1.894-0.398 0.188-0.136 0.707-0.707 1.154-1.268 0.964-1.21 1.404-1.637 2.411-2.345 2.101-1.476 3.224-2.375 4.688-3.752l0.926-0.87-0.050 0.608c-0.101 1.229-0.484 2.604-1.022 3.674-0.584 1.161-0.979 1.647-3.037 3.743-1.943 1.978-2.431 2.594-2.928 3.694-0.607 1.343-0.989 3.588-0.714 4.193 0.189 0.415-0.496 0.392 11.665 0.392h11.184l0.468-0.419-0.004-3.034c-0.005-3.501-0.111-5.297-0.47-7.98-0.509-3.795-1.309-6.68-2.569-9.254-1.253-2.562-2.852-4.444-4.986-5.873-1.802-1.206-4.214-2.087-6.605-2.411l-0.658-0.089-0.047-0.433c-0.136-1.24-0.511-2.101-1.029-2.36-0.232-0.117-0.571-0.175-0.762-0.132zM15.197 2.604c0.042 0.379 0.091 0.823 0.11 0.987 0.058 0.515 0.233 0.619 1.294 0.769 2.29 0.325 3.719 0.742 5.328 1.555 3.139 1.587 5.319 4.305 6.721 8.38 1.237 3.596 1.818 7.738 1.929 13.744l0.046 2.527h-20.544l0.045-0.484c0.101-1.079 0.631-2.396 1.35-3.351 0.207-0.276 1.138-1.276 2.067-2.222s1.905-2.011 2.168-2.365c1.456-1.966 2.203-4.502 2.203-7.478v-0.925l0.283-0.604c0.336-0.716 0.43-1.086 0.432-1.699 0.002-0.423-0.015-0.472-0.242-0.699-0.313-0.313-0.595-0.325-0.917-0.038-0.213 0.19-0.235 0.252-0.281 0.788-0.080 0.928-0.468 1.639-1.614 2.954-1.154 1.324-2.93 2.828-5.367 4.545-1.217 0.857-2.047 1.648-2.959 2.822-0.645 0.831-1.069 1.202-1.211 1.061-0.028-0.028 0.025-0.219 0.117-0.425 0.355-0.796 0.507-1.302 0.465-1.55-0.094-0.549-0.454-0.81-1.116-0.81-0.795 0-1.137 0.387-1.137 1.287 0 0.504-0.007 0.525-0.197 0.599-0.316 0.122-1.375 0.045-1.706-0.124-0.634-0.324-0.989-1.28-0.996-2.68-0.004-0.727 0.007-0.779 0.313-1.541 0.874-2.177 4.712-9.168 5.623-10.242 0.921-1.086 1.492-2.172 1.656-3.15 0.038-0.225 0.004-0.354-0.185-0.717-0.192-0.366-0.236-0.541-0.259-1.016l-0.028-0.574 0.36 0.379c0.198 0.208 0.575 0.701 0.837 1.095s0.535 0.747 0.606 0.786 0.672 0.068 1.335 0.067c1.414-0.003 1.349 0.026 1.799-0.809 0.35-0.65 0.823-1.287 1.207-1.623l0.268-0.236 0.060 0.163c0.033 0.089 0.094 0.473 0.136 0.851zM8.947 6.983c-0.407 0.215-0.966 0.885-1.299 1.558-0.282 0.569-0.306 0.661-0.306 1.184 0 0.562 0.002 0.568 0.268 0.812 0.466 0.427 1.031 0.32 1.65-0.312 0.682-0.696 1.192-1.85 1.103-2.496-0.055-0.402-0.206-0.632-0.509-0.775-0.312-0.148-0.587-0.139-0.906 0.029zM3.311 17.235c-0.704 0.159-1.1 0.879-0.847 1.542 0.143 0.374 0.437 0.643 0.831 0.761 0.805 0.241 1.682-0.631 1.442-1.433-0.196-0.654-0.786-1.013-1.425-0.869z"></path>
</symbol>
<symbol id="icon-pawn-black" viewBox="0 0 32 32">
<path d="M15.125 0.049c-1.287 0.232-2.571 1.145-3.264 2.319-0.432 0.733-0.61 1.513-0.572 2.513 0.025 0.658 0.074 0.949 0.237 1.409l0.206 0.58-0.285 0.241c-1.285 1.085-2.203 2.58-2.548 4.15-0.071 0.324-0.115 0.899-0.115 1.5 0 0.805 0.034 1.104 0.193 1.715 0.234 0.898 0.67 1.821 1.173 2.486 0.206 0.272 0.373 0.518 0.372 0.547s-0.311 0.255-0.688 0.502c-0.803 0.527-2.222 1.894-2.865 2.76-1.552 2.091-2.565 4.592-3.013 7.441-0.065 0.412-0.137 1.433-0.161 2.269l-0.043 1.519h24.494l-0.044-1.519c-0.11-3.799-1.154-6.994-3.174-9.71-0.665-0.895-1.981-2.163-2.853-2.752l-0.761-0.513 0.369-0.458c0.492-0.61 1.005-1.678 1.24-2.579 0.157-0.603 0.191-0.905 0.192-1.708 0-0.601-0.044-1.176-0.115-1.5-0.343-1.56-1.27-3.070-2.548-4.15l-0.285-0.241 0.21-0.58c0.189-0.523 0.21-0.675 0.21-1.555 0-0.798-0.030-1.071-0.166-1.503-0.425-1.351-1.704-2.607-3.097-3.041-0.562-0.175-1.719-0.247-2.299-0.142z"></path>
</symbol>
<symbol id="icon-pawn-white" viewBox="0 0 32 32">
<path d="M15.125 0.049c-1.287 0.232-2.571 1.145-3.264 2.319-0.432 0.733-0.61 1.513-0.572 2.513 0.025 0.658 0.074 0.949 0.237 1.409l0.206 0.58-0.285 0.241c-1.285 1.085-2.203 2.58-2.548 4.15-0.071 0.324-0.115 0.899-0.115 1.5 0 0.805 0.034 1.104 0.193 1.715 0.234 0.898 0.67 1.821 1.173 2.486 0.206 0.272 0.373 0.518 0.372 0.547s-0.311 0.255-0.688 0.502c-0.803 0.527-2.222 1.894-2.865 2.76-1.552 2.091-2.565 4.592-3.013 7.441-0.065 0.412-0.137 1.433-0.161 2.269l-0.043 1.519h24.494l-0.044-1.519c-0.11-3.799-1.154-6.994-3.174-9.71-0.665-0.895-1.981-2.163-2.853-2.752l-0.761-0.513 0.369-0.458c0.492-0.61 1.005-1.678 1.24-2.579 0.157-0.603 0.191-0.905 0.192-1.708 0-0.601-0.044-1.176-0.115-1.5-0.343-1.56-1.27-3.070-2.548-4.15l-0.285-0.241 0.21-0.58c0.189-0.523 0.21-0.675 0.21-1.555 0-0.798-0.030-1.071-0.166-1.503-0.425-1.351-1.704-2.607-3.097-3.041-0.562-0.175-1.719-0.247-2.299-0.142zM16.562 1.546c1.013 0.166 1.918 0.871 2.385 1.856 0.225 0.475 0.24 0.559 0.24 1.334 0 0.78-0.014 0.855-0.242 1.319-0.133 0.27-0.361 0.647-0.506 0.838s-0.264 0.376-0.264 0.413c0 0.037 0.302 0.246 0.671 0.464 1.441 0.853 2.468 2.275 2.78 3.849 0.104 0.527 0.108 1.676 0.006 2.202-0.25 1.295-0.94 2.424-2.063 3.375-0.285 0.242-0.619 0.526-0.742 0.632l-0.223 0.192 0.704 0.25c1.435 0.509 2.395 1.121 3.479 2.215 2.25 2.272 3.608 5.525 3.907 9.358l0.051 0.656h-21.493l0.051-0.656c0.3-3.836 1.667-7.109 3.91-9.362 1.091-1.096 2.045-1.703 3.477-2.211l0.704-0.25-0.223-0.192c-0.122-0.106-0.456-0.39-0.742-0.632-1.122-0.951-1.811-2.077-2.064-3.375-0.102-0.523-0.096-1.816 0.010-2.268 0.379-1.612 1.355-2.942 2.778-3.785 0.368-0.218 0.669-0.426 0.669-0.463s-0.119-0.223-0.264-0.413c-0.146-0.19-0.373-0.567-0.506-0.838-0.229-0.464-0.242-0.538-0.242-1.319 0-0.775 0.015-0.859 0.24-1.334 0.541-1.143 1.622-1.866 2.873-1.921 0.103-0.005 0.39 0.025 0.637 0.065z"></path>
</symbol>
<symbol id="icon-queen-black" viewBox="0 0 32 32">
<path d="M15.527 1.617c-1.432 0.303-2.21 1.91-1.57 3.242 0.173 0.359 0.691 0.873 1.040 1.030 0.179 0.081 0.259 0.152 0.243 0.218-0.013 0.054-0.443 2.127-0.955 4.607s-0.948 4.509-0.969 4.509-0.771-1.917-1.668-4.259l-1.63-4.259 0.138-0.091c0.292-0.192 0.69-0.659 0.848-0.995 0.141-0.301 0.164-0.433 0.164-0.943 0-0.514-0.023-0.641-0.169-0.953-0.313-0.668-1.010-1.194-1.707-1.289-1.423-0.193-2.645 0.851-2.648 2.264-0.003 0.974 0.765 1.961 1.7 2.186l0.172 0.041-0.003 0.763c-0.005 1.417-0.168 8.101-0.199 8.131-0.017 0.017-1.048-1.529-2.291-3.435l-2.261-3.465 0.253-0.287c0.525-0.596 0.678-1.524 0.38-2.303-0.199-0.52-0.762-1.081-1.277-1.274-0.511-0.191-1.174-0.191-1.685 0-0.515 0.192-1.078 0.754-1.277 1.274-0.517 1.351 0.31 2.819 1.741 3.089 0.186 0.035 0.348 0.073 0.36 0.085s0.437 2.097 0.945 4.633l0.924 4.612 0.108-0.206c0.133-0.253 0.229-0.29 1.148-0.446 2.938-0.498 6.084-0.741 10.281-0.795 5.025-0.064 8.989 0.232 11.415 0.853 0.538 0.137 0.641 0.199 0.737 0.436 0.053 0.13 0.228-0.654 0.991-4.453 0.509-2.536 0.936-4.621 0.948-4.633s0.174-0.050 0.36-0.085c0.78-0.147 1.475-0.712 1.746-1.42 0.191-0.496 0.188-1.162-0.006-1.669-0.199-0.52-0.762-1.081-1.277-1.274-0.511-0.191-1.174-0.191-1.685 0-0.516 0.192-1.078 0.754-1.277 1.274-0.298 0.778-0.145 1.706 0.379 2.301l0.252 0.286-2.26 3.466c-1.243 1.906-2.274 3.452-2.291 3.435-0.032-0.032-0.192-6.576-0.197-8.067l-0.003-0.826 0.172-0.041c0.934-0.224 1.7-1.22 1.7-2.208 0-1.1-0.855-2.089-1.933-2.237-1.036-0.142-1.992 0.365-2.423 1.284-0.146 0.312-0.169 0.439-0.169 0.953 0 0.51 0.023 0.642 0.164 0.943 0.157 0.335 0.556 0.803 0.848 0.995l0.138 0.091-1.63 4.259c-0.897 2.342-1.648 4.259-1.669 4.259s-0.455-2.015-0.963-4.477c-0.508-2.463-0.937-4.536-0.954-4.607-0.024-0.104 0.023-0.153 0.236-0.249 0.35-0.158 0.868-0.671 1.042-1.034 0.551-1.146 0.064-2.521-1.082-3.057-0.417-0.195-1.021-0.271-1.444-0.181zM13.601 18.568c-3.404 0.166-5.425 0.355-7.911 0.742-1.069 0.166-1.188 0.156-1.411-0.128-0.158-0.201-0.167-0.121-0.040 0.367 0.147 0.564 0.299 0.801 0.975 1.52 0.348 0.37 0.721 0.805 0.83 0.966l0.198 0.294v-0.223c0-0.348 0.257-0.536 0.903-0.663 3.637-0.713 14.076-0.713 17.714 0 0.646 0.127 0.903 0.315 0.903 0.663v0.223l0.198-0.294c0.109-0.162 0.482-0.597 0.83-0.966 0.676-0.719 0.828-0.956 0.975-1.52 0.131-0.502 0.118-0.549-0.084-0.323-0.224 0.251-0.359 0.255-1.382 0.039-2.404-0.506-4.558-0.675-8.955-0.7-1.819-0.010-3.504-0.009-3.744 0.003zM13.227 22.187c-2.593 0.087-4.612 0.253-5.765 0.474-0.668 0.128-0.721 0.13-0.89 0.033-0.177-0.102-0.176-0.099 0.071 0.265 0.281 0.413 0.294 0.512 0.159 1.218-0.087 0.456-0.111 0.5-0.486 0.897-0.409 0.433-0.653 0.868-0.829 1.474-0.057 0.195-0.19 0.494-0.297 0.666-0.25 0.402-0.303 0.966-0.133 1.411 0.131 0.343 0.644 0.911 0.975 1.080 0.363 0.185 2.399 0.444 4.95 0.63 1.538 0.112 8.509 0.112 10.047 0 2.551-0.186 4.586-0.445 4.95-0.63 0.331-0.169 0.844-0.737 0.975-1.080 0.17-0.444 0.116-1.009-0.133-1.411-0.107-0.172-0.241-0.475-0.299-0.674-0.168-0.577-0.456-1.083-0.852-1.495-0.348-0.362-0.373-0.41-0.46-0.866-0.136-0.709-0.123-0.808 0.158-1.221 0.247-0.364 0.248-0.367 0.070-0.265-0.169 0.097-0.222 0.095-0.89-0.034-0.819-0.157-2.114-0.294-3.674-0.387-1.092-0.065-6.468-0.127-7.644-0.087zM20.903 23.988c1.4 0.113 3.499 0.368 3.937 0.478 0.487 0.123 0.674 0.652 0.356 1.005-0.195 0.217-0.367 0.242-0.976 0.145-0.815-0.131-2.641-0.329-3.879-0.422-0.666-0.050-2.279-0.080-4.337-0.080s-3.671 0.030-4.337 0.080c-1.237 0.093-3.063 0.291-3.878 0.422-0.314 0.050-0.623 0.073-0.686 0.050-0.369-0.131-0.545-0.55-0.371-0.887 0.133-0.258 0.213-0.292 0.941-0.406 1.353-0.212 2.895-0.355 5.429-0.502 1.047-0.061 6.636 0.023 7.801 0.117z"></path>
</symbol>
<symbol id="icon-queen-white" viewBox="0 0 32 32">
<path d="M15.527 1.618c-1.432 0.303-2.21 1.91-1.57 3.242 0.173 0.359 0.691 0.873 1.040 1.030 0.179 0.081 0.259 0.152 0.243 0.218-0.013 0.054-0.443 2.127-0.955 4.607s-0.948 4.509-0.969 4.509-0.771-1.917-1.668-4.259l-1.63-4.259 0.138-0.091c0.292-0.192 0.69-0.659 0.848-0.995 0.141-0.301 0.164-0.433 0.164-0.943 0-0.514-0.023-0.641-0.169-0.953-0.313-0.668-1.010-1.194-1.707-1.289-1.423-0.193-2.645 0.851-2.648 2.264-0.003 0.974 0.765 1.961 1.7 2.186l0.172 0.041-0.003 0.763c-0.005 1.417-0.168 8.101-0.199 8.131-0.017 0.017-1.048-1.529-2.291-3.435l-2.261-3.465 0.253-0.287c0.525-0.596 0.678-1.524 0.38-2.303-0.199-0.52-0.762-1.081-1.277-1.274-0.511-0.191-1.174-0.191-1.685 0-0.515 0.192-1.078 0.754-1.277 1.274-0.517 1.351 0.31 2.819 1.741 3.089 0.186 0.035 0.348 0.073 0.36 0.085 0.029 0.029 1.86 9.268 1.94 9.787 0.102 0.666 0.299 1.011 1.013 1.77 0.739 0.785 1.684 2.166 1.684 2.459 0 0.098-0.041 0.394-0.092 0.658-0.087 0.456-0.111 0.5-0.486 0.897-0.409 0.433-0.653 0.868-0.829 1.474-0.057 0.195-0.19 0.494-0.297 0.666-0.25 0.402-0.303 0.966-0.133 1.411 0.131 0.343 0.644 0.911 0.975 1.080 0.268 0.137 0.984 0.252 2.641 0.424 2.412 0.252 3.32 0.287 7.333 0.287s4.921-0.036 7.333-0.287c1.657-0.173 2.373-0.288 2.641-0.424 0.331-0.169 0.844-0.737 0.975-1.080 0.17-0.444 0.116-1.009-0.133-1.411-0.107-0.172-0.241-0.475-0.299-0.674-0.168-0.577-0.456-1.083-0.852-1.495-0.348-0.362-0.373-0.41-0.46-0.866-0.051-0.266-0.092-0.563-0.092-0.661 0-0.293 0.945-1.674 1.684-2.459 0.714-0.759 0.911-1.103 1.013-1.77 0.080-0.52 1.911-9.758 1.94-9.787 0.012-0.012 0.174-0.050 0.36-0.085 0.78-0.147 1.475-0.712 1.746-1.42 0.191-0.496 0.188-1.162-0.006-1.669-0.199-0.52-0.762-1.081-1.277-1.274-0.511-0.191-1.174-0.191-1.685 0-0.516 0.192-1.078 0.754-1.277 1.274-0.298 0.778-0.145 1.706 0.379 2.301l0.252 0.286-2.26 3.466c-1.243 1.906-2.274 3.452-2.291 3.435-0.032-0.032-0.192-6.576-0.197-8.067l-0.003-0.826 0.172-0.041c0.934-0.224 1.7-1.22 1.7-2.208 0-1.1-0.855-2.089-1.933-2.237-1.036-0.142-1.992 0.365-2.423 1.284-0.146 0.312-0.169 0.439-0.169 0.953 0 0.51 0.023 0.642 0.164 0.943 0.157 0.335 0.556 0.803 0.848 0.995l0.138 0.091-1.63 4.259c-0.897 2.342-1.648 4.259-1.669 4.259s-0.455-2.015-0.963-4.477c-0.508-2.463-0.937-4.536-0.954-4.607-0.024-0.104 0.023-0.153 0.236-0.249 0.35-0.158 0.868-0.671 1.042-1.034 0.551-1.146 0.064-2.521-1.082-3.057-0.417-0.195-1.021-0.271-1.444-0.181zM16.359 2.872c0.806 0.305 0.887 1.528 0.125 1.889-0.701 0.332-1.493-0.136-1.493-0.883 0-0.754 0.691-1.263 1.368-1.007zM9.485 3.809c0.436 0.261 0.59 0.911 0.328 1.378-0.35 0.624-1.154 0.707-1.639 0.17-0.795-0.88 0.29-2.16 1.312-1.548zM23.563 3.779c0.59 0.297 0.725 1.076 0.271 1.578-0.813 0.9-2.209-0.088-1.656-1.172 0.253-0.496 0.854-0.672 1.384-0.406zM2.743 6.254c0.646 0.319 0.746 1.28 0.18 1.725-0.393 0.309-0.903 0.309-1.296 0-0.503-0.396-0.487-1.246 0.032-1.632 0.291-0.217 0.752-0.257 1.084-0.093zM30.201 6.254c0.646 0.319 0.746 1.28 0.18 1.725-0.393 0.309-0.903 0.309-1.296 0-0.503-0.396-0.487-1.246 0.032-1.632 0.291-0.217 0.753-0.257 1.084-0.093zM16.913 12.993l0.878 4.259-0.894 0.017c-0.491 0.009-1.296 0.009-1.788 0l-0.895-0.017 0.879-4.259c0.483-2.342 0.893-4.259 0.91-4.259s0.426 1.917 0.909 4.259zM11.283 13.508l1.456 3.807-1.047 0.070c-0.576 0.039-1.292 0.091-1.591 0.116l-0.543 0.045 0.040-1.395c0.022-0.767 0.055-2.35 0.074-3.517 0.032-2.016 0.081-3.133 0.132-2.995 0.013 0.034 0.679 1.775 1.48 3.869zM22.33 12.509c0.022 1.304 0.058 2.957 0.081 3.673l0.040 1.301-0.524-0.042c-0.288-0.023-0.979-0.062-1.535-0.086s-1.029-0.062-1.051-0.084c-0.022-0.022 0.615-1.755 1.416-3.851 1.366-3.575 1.459-3.795 1.494-3.546 0.021 0.146 0.056 1.332 0.078 2.636zM6.28 15.073l1.716 2.627-1.347 0.19c-0.741 0.104-1.358 0.18-1.372 0.167-0.018-0.017-1.074-5.225-1.289-6.36-0.027-0.144 0.035-0.079 0.27 0.281 0.168 0.257 1.078 1.65 2.022 3.095zM27.425 14.698c-0.723 3.62-0.677 3.41-0.74 3.371-0.058-0.036-1.699-0.32-2.213-0.382-0.234-0.029-0.355-0.071-0.343-0.12 0.022-0.088 3.881-6.018 3.903-5.998 0.008 0.007-0.265 1.415-0.607 3.129zM20.872 18.683c1.863 0.139 4.928 0.493 5.537 0.639 0.135 0.032 0.136 0.039 0.037 0.23-0.056 0.108-0.343 0.449-0.638 0.758s-0.635 0.683-0.755 0.832l-0.218 0.271-1.030-0.129c-1.319-0.165-2.422-0.242-4.556-0.318-3.982-0.142-8.378-0.015-11.046 0.318l-1.030 0.129-0.218-0.271c-0.12-0.149-0.46-0.523-0.755-0.832s-0.582-0.651-0.639-0.76c-0.102-0.198-0.102-0.198 0.068-0.233 1.21-0.252 4.792-0.61 7.472-0.747 1.154-0.059 6.511 0.019 7.769 0.113zM20.84 22.273c1.392 0.083 3.107 0.252 3.17 0.311 0.027 0.026 0.002 0.166-0.056 0.312-0.085 0.212-0.098 0.379-0.068 0.839l0.038 0.574-0.887-0.109c-2.199-0.27-3.504-0.331-7.034-0.331s-4.834 0.061-7.034 0.331l-0.887 0.109 0.038-0.574c0.030-0.46 0.017-0.627-0.068-0.839-0.058-0.145-0.083-0.285-0.056-0.312 0.11-0.103 3.036-0.326 5.198-0.396 1.206-0.039 6.571 0.020 7.644 0.085zM20.466 25.204c1.018 0.078 2.99 0.291 3.62 0.391 0.389 0.062 0.464 0.098 0.689 0.329 0.291 0.299 0.507 0.72 0.566 1.107 0.047 0.311 0.11 0.45 0.314 0.695s0.187 0.451-0.056 0.694c-0.233 0.233-0.383 0.263-2.356 0.468-2.37 0.247-3.304 0.284-7.239 0.284s-4.869-0.037-7.239-0.284c-1.972-0.206-2.123-0.235-2.356-0.468-0.243-0.242-0.259-0.449-0.056-0.694s0.267-0.384 0.313-0.686c0.062-0.408 0.257-0.796 0.55-1.098 0.249-0.257 0.306-0.283 0.738-0.35 0.887-0.137 2.593-0.312 3.713-0.379 0.618-0.037 1.278-0.078 1.467-0.090 0.714-0.046 6.496 0.019 7.332 0.083z"></path>
</symbol>
<symbol id="icon-rook-black" viewBox="0 0 32 32">
<path d="M3.946 0.117c-0.114 0.063-0.243 0.18-0.286 0.26-0.049 0.092-0.078 1.191-0.078 2.981v2.835l3.047 3.071v12.009l-2.019 2.526-0.023 1.814-0.023 1.814h-1.185c-1.3 0-1.608 0.074-1.768 0.426-0.123 0.269-0.119 3.459 0.004 3.728 0.202 0.443-0.709 0.417 14.427 0.417h13.916l0.518-0.518v-3.517l-0.444-0.498-2.596-0.048-0.046-3.609-2.019-2.513v-12.031l3.047-3.071v-2.835c0-1.799-0.029-2.889-0.078-2.982-0.186-0.348-0.392-0.377-2.668-0.377-2.834 0-2.815-0.009-2.815 1.337v0.72h-3.581v-0.767c0-1.343 0.135-1.29-3.276-1.29s-3.276-0.053-3.276 1.29v0.767h-3.581v-0.761c0-0.733-0.008-0.77-0.222-1.010l-0.222-0.249-2.273-0.018c-1.902-0.015-2.307 0.001-2.481 0.096zM28.092 5.423c0.321 0.302 0.206 0.822-0.214 0.969-0.343 0.119-23.409 0.119-23.752 0-0.414-0.144-0.529-0.635-0.225-0.959l0.166-0.176h23.849l0.176 0.166zM24.791 8.543c0.237 0.108 0.305 0.356 0.158 0.58l-0.113 0.173h-17.669l-0.122-0.187c-0.147-0.225-0.092-0.447 0.139-0.559 0.246-0.119 17.348-0.125 17.607-0.007zM24.92 21.337c0.156 0.156 0.149 0.391-0.016 0.567-0.099 0.105-17.705 0.105-17.803 0-0.166-0.177-0.173-0.411-0.016-0.567s0.185-0.156 8.918-0.156 8.762 0.001 8.918 0.156zM27.091 23.73c0.237 0.237 0.238 0.507 0.003 0.78l-0.184 0.214h-21.817l-0.184-0.214c-0.235-0.273-0.234-0.544 0.003-0.78l0.187-0.187h21.804l0.187 0.187zM27.094 27.299c0.235 0.273 0.234 0.544-0.003 0.78l-0.187 0.187h-21.804l-0.187-0.187c-0.103-0.103-0.187-0.267-0.187-0.364 0-0.223 0.195-0.506 0.408-0.593 0.091-0.037 4.977-0.060 10.97-0.051l10.807 0.015 0.184 0.214z"></path>
</symbol>
<symbol id="icon-rook-white" viewBox="0 0 32 32">
<path d="M3.946 0.117c-0.114 0.063-0.243 0.18-0.286 0.26-0.049 0.092-0.078 1.191-0.078 2.981v2.835l3.047 3.071v12.009l-2.019 2.526-0.023 1.814-0.023 1.814h-1.185c-1.3 0-1.608 0.074-1.768 0.426-0.123 0.269-0.119 3.459 0.004 3.728 0.202 0.443-0.709 0.417 14.427 0.417h13.916l0.518-0.518v-3.517l-0.444-0.498-2.596-0.048-0.046-3.609-2.019-2.513v-12.031l3.047-3.071v-2.835c0-1.799-0.029-2.889-0.078-2.982-0.186-0.348-0.392-0.377-2.668-0.377-2.834 0-2.815-0.009-2.815 1.337v0.72h-3.581v-0.767c0-1.343 0.135-1.29-3.276-1.29s-3.276-0.053-3.276 1.29v0.767h-3.581v-0.761c0-0.733-0.008-0.77-0.222-1.010l-0.222-0.249-2.273-0.018c-1.902-0.015-2.307 0.001-2.481 0.096zM7.621 2.285c0 0.733 0.008 0.77 0.223 1.010l0.222 0.249 2.705 0.022c2.277 0.019 2.748 0.005 2.98-0.092 0.376-0.157 0.499-0.477 0.499-1.299v-0.65h3.505v0.65c0 0.822 0.123 1.142 0.499 1.299 0.232 0.097 0.703 0.112 2.98 0.092l2.705-0.022 0.222-0.249c0.214-0.24 0.223-0.277 0.223-1.010v-0.761h2.514v3.733h-21.79v-3.733h2.514v0.761zM24.954 7.467l-0.989 0.991-16.002-0.022-1.898-1.959h19.877l-0.988 0.99zM23.849 15.238v5.943h-15.695v-11.886h15.695v5.943zM24.57 22.732c0.316 0.392 0.574 0.735 0.574 0.762s-4.114 0.049-9.143 0.049c-5.028 0-9.143-0.022-9.143-0.049s0.258-0.37 0.574-0.762l0.574-0.714h15.99l0.574 0.714zM25.906 26.095v1.334h-19.809v-2.667h19.809v1.333zM28.954 29.714v0.762h-25.905v-1.524h25.905v0.762z"></path>
</symbol>
<symbol id="icon-bishop-black" viewBox="0 0 32 32">
<path d="M15.572 0.025c-0.922 0.106-1.867 0.81-2.284 1.701-0.517 1.105-0.249 2.538 0.629 3.362l0.216 0.202-0.678 0.355c-2.182 1.143-4.007 2.806-5.066 4.618-0.871 1.491-1.31 3.344-1.152 4.87 0.093 0.899 0.226 1.356 0.656 2.25 0.3 0.624 0.465 0.87 0.891 1.322 0.287 0.305 0.677 0.655 0.866 0.776s0.344 0.244 0.344 0.272-0.066 0.11-0.147 0.182c-0.267 0.24-0.753 0.915-0.964 1.341-0.21 0.424-0.481 1.348-0.472 1.613 0.005 0.142 0.006 0.142 0.078-0.007 0.184-0.382-0.082-0.369 7.613-0.35l7.084 0.018 0.201 0.225c0.248 0.278 0.258 0.192 0.067-0.555-0.212-0.829-0.769-1.803-1.306-2.286-0.081-0.072-0.147-0.154-0.147-0.182s0.155-0.15 0.344-0.272c0.189-0.121 0.575-0.466 0.857-0.766 0.412-0.438 0.587-0.698 0.892-1.322 0.434-0.892 0.57-1.351 0.662-2.237 0.121-1.171-0.12-2.642-0.632-3.854-0.945-2.239-2.965-4.285-5.584-5.656l-0.678-0.355 0.216-0.202c0.56-0.526 0.888-1.313 0.887-2.13-0.001-0.833-0.275-1.498-0.858-2.080-0.685-0.685-1.527-0.969-2.533-0.853zM16.497 8.993c0.186 0.205 0.19 0.223 0.19 1.104v0.896h0.75c0.413 0 0.847 0.019 0.965 0.043 0.552 0.11 0.752 0.743 0.36 1.135l-0.202 0.202h-1.874v1.798c0 1.907-0.030 2.105-0.341 2.272-0.17 0.091-0.527 0.091-0.697 0-0.312-0.167-0.341-0.365-0.341-2.272v-1.798h-1.874l-0.202-0.202c-0.392-0.392-0.192-1.025 0.36-1.135 0.118-0.024 0.552-0.043 0.965-0.043h0.75v-0.859c0-0.959 0.054-1.151 0.371-1.311 0.289-0.147 0.587-0.084 0.819 0.17zM21.051 19.034c0.22 0.22 0.272 0.487 0.151 0.777-0.183 0.438-0.078 0.429-5.206 0.429-5.157 0-5.022 0.012-5.214-0.447-0.124-0.296-0.076-0.525 0.158-0.758l0.175-0.175h9.761l0.174 0.174zM8.272 23.406c-0.105 0.427-0.067 1.049 0.101 1.625 0.089 0.307 0.181 0.443 0.469 0.698 0.67 0.593 1.965 1.114 3.447 1.387 0.351 0.065 0.663 0.139 0.694 0.166 0.169 0.143-2.097 0.319-4.853 0.376-3.276 0.068-4.816 0.265-5.823 0.745-0.975 0.465-2.087 1.548-2.16 2.105-0.028 0.215 0.005 0.307 0.21 0.575 0.674 0.881 1.624 1.106 3.039 0.72 0.364-0.099 0.809-0.214 0.99-0.256 0.206-0.047 2.015-0.094 4.849-0.125 4.783-0.053 5.024-0.069 6.262-0.415l0.5-0.14 0.5 0.14c1.239 0.346 1.478 0.362 6.262 0.413 4.733 0.051 4.714 0.050 5.803 0.375 1.3 0.388 2.166 0.232 2.903-0.526 0.519-0.532 0.527-0.816 0.041-1.344-0.424-0.46-1.283-1.074-2.060-1.473-1.15-0.591-2.066-0.721-5.583-0.794-2.756-0.057-5.022-0.233-4.853-0.376 0.031-0.027 0.344-0.101 0.694-0.166 1.482-0.274 2.777-0.795 3.447-1.387 0.291-0.257 0.379-0.39 0.473-0.71 0.167-0.574 0.201-1.299 0.079-1.673-0.088-0.27-0.103-0.285-0.108-0.114-0.005 0.125-0.092 0.281-0.242 0.431l-0.235 0.235h-7.084c-6.059 0-7.112-0.015-7.277-0.1-0.183-0.095-0.313-0.314-0.368-0.624-0.015-0.082-0.062 0.012-0.116 0.234z"></path>
</symbol>
<symbol id="icon-bishop-white" viewBox="0 0 32 32">
<path d="M15.572 0.025c-0.922 0.106-1.867 0.81-2.284 1.701-0.517 1.105-0.249 2.538 0.629 3.362l0.216 0.202-0.678 0.355c-2.182 1.143-4.007 2.806-5.066 4.618-0.871 1.491-1.31 3.344-1.152 4.87 0.093 0.899 0.226 1.356 0.656 2.25 0.3 0.624 0.465 0.87 0.891 1.322 0.287 0.305 0.677 0.655 0.866 0.776s0.344 0.236 0.344 0.255c0 0.019-0.137 0.187-0.304 0.372-0.634 0.706-1.048 1.517-1.21 2.374-0.043 0.228-0.128 0.608-0.189 0.845-0.126 0.488-0.096 1.086 0.083 1.704 0.089 0.307 0.181 0.443 0.469 0.698 0.67 0.593 1.965 1.114 3.447 1.387 0.351 0.065 0.663 0.139 0.694 0.166 0.169 0.143-2.097 0.319-4.853 0.376-3.276 0.068-4.816 0.265-5.823 0.745-0.975 0.465-2.087 1.548-2.16 2.105-0.028 0.215 0.005 0.307 0.21 0.575 0.674 0.881 1.624 1.106 3.039 0.72 0.364-0.099 0.809-0.214 0.99-0.256 0.206-0.047 2.015-0.094 4.849-0.125 4.783-0.053 5.024-0.069 6.262-0.415l0.5-0.14 0.5 0.14c1.239 0.346 1.478 0.362 6.262 0.413 4.733 0.051 4.714 0.050 5.803 0.375 1.3 0.388 2.166 0.232 2.903-0.526 0.519-0.532 0.527-0.816 0.041-1.344-0.424-0.46-1.283-1.074-2.060-1.473-1.15-0.591-2.066-0.721-5.583-0.794-2.756-0.057-5.022-0.233-4.853-0.376 0.031-0.027 0.344-0.101 0.694-0.166 1.482-0.274 2.777-0.795 3.447-1.387 0.288-0.254 0.38-0.391 0.469-0.698 0.18-0.618 0.209-1.216 0.083-1.704-0.061-0.237-0.146-0.617-0.189-0.845-0.162-0.857-0.576-1.668-1.21-2.374-0.167-0.186-0.304-0.353-0.304-0.372s0.155-0.134 0.344-0.255c0.189-0.121 0.575-0.466 0.857-0.766 0.412-0.438 0.587-0.698 0.892-1.322 0.434-0.892 0.57-1.351 0.662-2.237 0.121-1.171-0.12-2.642-0.632-3.854-0.945-2.239-2.965-4.285-5.584-5.656l-0.678-0.355 0.216-0.202c0.56-0.526 0.888-1.313 0.887-2.13-0.001-0.833-0.275-1.498-0.858-2.080-0.685-0.685-1.527-0.969-2.533-0.853zM16.565 1.472c0.326 0.103 0.66 0.41 0.842 0.776 0.338 0.679 0.186 1.45-0.382 1.936-1.327 1.136-3.242-0.406-2.427-1.955 0.382-0.727 1.137-1.017 1.966-0.757zM16.628 6.267c0.879 0.37 2.127 1.053 2.834 1.552 0.945 0.666 2.070 1.813 2.66 2.711 0.833 1.269 1.178 2.296 1.24 3.688 0.042 0.945-0.032 1.458-0.309 2.158-0.406 1.026-1.066 1.781-1.94 2.22l-0.459 0.23h-9.316l-0.459-0.23c-0.839-0.421-1.498-1.155-1.909-2.127-0.518-1.226-0.473-2.959 0.115-4.474 0.77-1.983 2.585-3.85 4.936-5.078 0.846-0.442 1.805-0.878 1.949-0.886 0.044-0.003 0.339 0.104 0.656 0.238zM15.678 8.822c-0.317 0.16-0.371 0.352-0.371 1.311v0.859h-0.75c-0.413 0-0.847 0.019-0.965 0.043-0.552 0.11-0.752 0.743-0.36 1.135l0.202 0.202h1.874v1.798c0 1.907 0.030 2.105 0.341 2.272 0.17 0.091 0.527 0.091 0.697 0 0.311-0.167 0.341-0.365 0.341-2.272v-1.798h1.874l0.202-0.202c0.392-0.392 0.192-1.025-0.36-1.135-0.118-0.024-0.552-0.043-0.965-0.043h-0.75v-0.896c0-0.881-0.003-0.899-0.19-1.104-0.232-0.255-0.53-0.317-0.819-0.17zM21.031 20.785c0.376 0.38 0.614 0.696 0.788 1.044 0.137 0.275 0.25 0.542 0.25 0.594 0 0.079-0.986 0.094-6.073 0.094s-6.073-0.015-6.073-0.094c0-0.052 0.112-0.319 0.25-0.594 0.175-0.349 0.412-0.664 0.788-1.044l0.538-0.545h8.993l0.538 0.545zM22.381 24.225c-0.027 0.18-0.078 0.382-0.114 0.448s-0.351 0.259-0.701 0.428c-2.703 1.309-8.437 1.309-11.14 0-0.35-0.169-0.665-0.362-0.701-0.428s-0.086-0.268-0.114-0.448l-0.049-0.328h12.866l-0.049 0.328zM16.556 27.996c1.622 0.747 3.006 0.933 7.997 1.075 2.744 0.078 3.369 0.16 4.178 0.552 0.305 0.148 0.754 0.415 0.998 0.594 0.419 0.308 0.434 0.329 0.281 0.386-0.179 0.066-0.799-0.026-1.251-0.186-0.857-0.302-1.296-0.33-5.965-0.377-4.868-0.049-4.945-0.055-6.228-0.467l-0.569-0.183-0.569 0.183c-1.283 0.412-1.36 0.418-6.228 0.467-4.67 0.047-5.108 0.075-5.965 0.377-0.499 0.176-1.072 0.253-1.284 0.173l-0.192-0.073 0.265-0.271c0.396-0.405 1.063-0.723 1.865-0.888 0.953-0.196 1.945-0.271 4.242-0.319 2.51-0.053 3.827-0.14 4.865-0.321 0.902-0.157 2.031-0.498 2.562-0.775 0.185-0.096 0.371-0.176 0.413-0.178s0.306 0.103 0.586 0.232z"></path>
</symbol>
<symbol id="icon-undo" viewBox="0 0 32 32">
<path d="M16 2c-4.418 0-8.418 1.791-11.313 4.687l-4.686-4.687v12h12l-4.485-4.485c2.172-2.172 5.172-3.515 8.485-3.515 6.627 0 12 5.373 12 12 0 3.584-1.572 6.801-4.063 9l2.646 3c3.322-2.932 5.417-7.221 5.417-12 0-8.837-7.163-16-16-16z"></path>
</symbol>
<symbol id="icon-redo" viewBox="0 0 32 32">
<path d="M0 18c0 4.779 2.095 9.068 5.417 12l2.646-3c-2.491-2.199-4.063-5.416-4.063-9 0-6.627 5.373-12 12-12 3.314 0 6.314 1.343 8.485 3.515l-4.485 4.485h12v-12l-4.687 4.687c-2.895-2.896-6.895-4.687-11.313-4.687-8.837 0-16 7.163-16 16z"></path>
</symbol>
<symbol id="icon-menu" viewBox="0 0 32 32">
<path d="M2 6h28v6h-28zM2 14h28v6h-28zM2 22h28v6h-28z"></path>
</symbol>
<symbol id="icon-plus" viewBox="0 0 32 32">
<path d="M31 12h-11v-11c0-0.552-0.448-1-1-1h-6c-0.552 0-1 0.448-1 1v11h-11c-0.552 0-1 0.448-1 1v6c0 0.552 0.448 1 1 1h11v11c0 0.552 0.448 1 1 1h6c0.552 0 1-0.448 1-1v-11h11c0.552 0 1-0.448 1-1v-6c0-0.552-0.448-1-1-1z"></path>
</symbol>
<symbol id="icon-cross" viewBox="0 0 32 32">
<path d="M31.708 25.708c-0-0-0-0-0-0l-9.708-9.708 9.708-9.708c0-0 0-0 0-0 0.105-0.105 0.18-0.227 0.229-0.357 0.133-0.356 0.057-0.771-0.229-1.057l-4.586-4.586c-0.286-0.286-0.702-0.361-1.057-0.229-0.13 0.048-0.252 0.124-0.357 0.228 0 0-0 0-0 0l-9.708 9.708-9.708-9.708c-0-0-0-0-0-0-0.105-0.104-0.227-0.18-0.357-0.228-0.356-0.133-0.771-0.057-1.057 0.229l-4.586 4.586c-0.286 0.286-0.361 0.702-0.229 1.057 0.049 0.13 0.124 0.252 0.229 0.357 0 0 0 0 0 0l9.708 9.708-9.708 9.708c-0 0-0 0-0 0-0.104 0.105-0.18 0.227-0.229 0.357-0.133 0.355-0.057 0.771 0.229 1.057l4.586 4.586c0.286 0.286 0.702 0.361 1.057 0.229 0.13-0.049 0.252-0.124 0.357-0.229 0-0 0-0 0-0l9.708-9.708 9.708 9.708c0 0 0 0 0 0 0.105 0.105 0.227 0.18 0.357 0.229 0.356 0.133 0.771 0.057 1.057-0.229l4.586-4.586c0.286-0.286 0.362-0.702 0.229-1.057-0.049-0.13-0.124-0.252-0.229-0.357z"></path>
</symbol>
<symbol id="icon-chess-logo" viewBox="0 0 32 32">
<path d="M0 0v32h32v-32h-32zM16 30v-14h-14v-14h14v14h14v14h-14z"></path>
</symbol>
</defs>
</svg>
