<svg aria-hidden="true" style="position: absolute; width: 0; height: 0; overflow: hidden;" version="1.1" xmlns="http://www.w3.org/2000/svg" xmlns:xlink="http://www.w3.org/1999/xlink">
<defs>
<symbol id="icon-bishop-black" viewBox="0 0 64 64">
<path stroke-linejoin="round" stroke-linecap="butt" stroke-miterlimit="4" stroke-width="0.75" d="M35.556 11.378c0 1.964-1.592 3.556-3.556 3.556s-3.556-1.592-3.556-3.556c0-1.964 1.592-3.556 3.556-3.556s3.556 1.592 3.556 3.556z"></path>
<path stroke-linejoin="round" stroke-linecap="butt" stroke-miterlimit="4" stroke-width="0.75" d="M21.333 45.511c3.556 3.556 17.778 3.556 21.333 0 0.711-2.133 0-2.844 0-2.844 0-3.556-3.556-5.689-3.556-5.689 7.822-2.133 8.533-16.356-7.111-22.044-15.644 5.689-14.933 19.911-7.111 22.044 0 0-3.556 2.133-3.556 5.689 0 0-0.711 0.711 0 2.844z"></path>
<path stroke-linejoin="round" stroke-linecap="butt" stroke-miterlimit="4" stroke-width="0.75" d="M12.8 51.2c4.821-1.38 14.379 0.612 19.2-2.844 4.821 3.456 14.379 1.465 19.2 2.844 0 0 2.347 0.768 4.267 2.844-0.967 1.38-2.347 1.408-4.267 0.711-4.821-1.38-14.379 0.654-19.2-1.422-4.821 2.076-14.379 0.043-19.2 1.422-1.926 0.697-3.304 0.668-4.267-0.711 1.926-2.759 4.267-2.844 4.267-2.844z"></path>
<path fill="none" stroke="#fff" style="stroke: var(--color2, #fff)" stroke-linejoin="miter" stroke-linecap="round" stroke-miterlimit="4" stroke-width="0.75" d="M24.889 36.978h14.222"></path>
<path fill="none" stroke="#fff" style="stroke: var(--color2, #fff)" stroke-linejoin="miter" stroke-linecap="round" stroke-miterlimit="4" stroke-width="0.75" d="M21.333 42.667h21.333"></path>
<path fill="none" stroke="#fff" style="stroke: var(--color2, #fff)" stroke-linejoin="miter" stroke-linecap="round" stroke-miterlimit="4" stroke-width="0.75" d="M32 21.333v9.956M28.444 24.889h7.111"></path>
</symbol>
<symbol id="icon-bishop-white" viewBox="0 0 64 64">
<path fill="#fff" style="fill: var(--color2, #fff)" stroke-linejoin="round" stroke-linecap="butt" stroke-miterlimit="4" stroke-width="0.75" stroke="#000" d="M35.556 11.378c0 1.964-1.592 3.556-3.556 3.556s-3.556-1.592-3.556-3.556c0-1.964 1.592-3.556 3.556-3.556s3.556 1.592 3.556 3.556z"></path>
<path fill="#fff" style="fill: var(--color2, #fff)" stroke-linejoin="round" stroke-linecap="butt" stroke-miterlimit="4" stroke-width="0.75" stroke="#000" d="M21.333 45.511c3.556 3.556 17.778 3.556 21.333 0 0.711-2.133 0-2.844 0-2.844 0-3.556-3.556-5.689-3.556-5.689 7.822-2.133 8.533-16.356-7.111-22.044-15.644 5.689-14.933 19.911-7.111 22.044 0 0-3.556 2.133-3.556 5.689 0 0-0.711 0.711 0 2.844z"></path>
<path fill="#fff" style="fill: var(--color2, #fff)" stroke-linejoin="round" stroke-linecap="butt" stroke-miterlimit="4" stroke-width="0.75" stroke="#000" d="M12.8 51.2c4.821-1.38 14.379 0.612 19.2-2.844 4.821 3.456 14.379 1.465 19.2 2.844 0 0 2.347 0.768 4.267 2.844-0.967 1.38-2.347 1.408-4.267 0.711-4.821-1.38-14.379 0.654-19.2-1.422-4.821 2.076-14.379 0.043-19.2 1.422-1.926 0.697-3.304 0.668-4.267-0.711 1.926-2.759 4.267-2.844 4.267-2.844z"></path>
<path stroke-linejoin="miter" stroke-linecap="round" stroke-miterlimit="4" stroke-width="0.75" d="M24.889 36.978h14.222"></path>
<path stroke-linejoin="miter" stroke-linecap="round" stroke-miterlimit="4" stroke-width="0.75" d="M21.333 42.667h21.333"></path>
<path stroke-linejoin="miter" stroke-linecap="round" stroke-miterlimit="4" stroke-width="0.75" d="M32 21.333v9.956M28.444 24.889h7.111"></path>
</symbol>
<symbol id="icon-king-black" viewBox="0 0 64 64">
<path fill="none" stroke="#000" style="stroke: var(--color1, #000)" stroke-linejoin="round" stroke-linecap="round" stroke-miterlimit="4" stroke-width="0.75" d="M32 16.54v-8.007M28.444 11.378h7.111"></path>
<path stroke-linejoin="round" stroke-linecap="butt" stroke-miterlimit="4" stroke-width="0.75" d="M32 35.556c0 0 6.4-10.667 4.267-14.933 0 0-1.422-3.556-4.267-3.556s-4.267 3.556-4.267 3.556c-2.133 4.267 4.267 14.933 4.267 14.933"></path>
<path stroke-linejoin="round" stroke-linecap="butt" stroke-miterlimit="4" stroke-width="0.75" d="M16.356 52.622c7.822 4.978 22.044 4.978 29.867 0v-9.956c0 0 12.8-6.4 8.533-14.933-5.689-9.244-19.2-4.978-22.756 5.689v0c-4.978-10.667-18.489-14.933-22.756-5.689-4.267 8.533 7.111 14.222 7.111 14.222v10.667"></path>
<path fill="none" stroke="#fff" style="stroke: var(--color2, #fff)" stroke-linejoin="round" stroke-linecap="square" stroke-miterlimit="4" stroke-width="0.75" d="M32 28.444c0 0 4.622-4.267 2.844-7.822 0 0-0.711-2.133-2.844-2.133s-2.844 2.133-2.844 2.133c-1.778 3.556 2.844 7.822 2.844 7.822"></path>
<path fill="none" stroke="#fff" style="stroke: var(--color2, #fff)" stroke-linejoin="round" stroke-linecap="round" stroke-miterlimit="4" stroke-width="0.75" d="M45.511 41.956c0 0 12.089-5.689 8.576-13.724-5.518-8.32-18.532-2.631-22.087 6.613v0c-3.556-9.244-17.911-14.933-22.049-6.613-3.551 8.036 6.902 12.8 6.902 12.8"></path>
<path fill="none" stroke="#fff" style="stroke: var(--color2, #fff)" stroke-linejoin="round" stroke-linecap="round" stroke-miterlimit="4" stroke-width="0.75" d="M16.356 42.667c7.822-4.267 22.044-4.267 29.867 0"></path>
<path fill="none" stroke="#fff" style="stroke: var(--color2, #fff)" stroke-linejoin="round" stroke-linecap="round" stroke-miterlimit="4" stroke-width="0.75" d="M16.356 47.644c7.822-4.267 22.044-4.267 29.867 0"></path>
<path fill="none" stroke="#fff" style="stroke: var(--color2, #fff)" stroke-linejoin="round" stroke-linecap="round" stroke-miterlimit="4" stroke-width="0.75" d="M16.356 52.622c7.822-4.267 22.044-4.267 29.867 0"></path>
</symbol>
<symbol id="icon-king-white" viewBox="0 0 64 64">
<path stroke-linejoin="round" stroke-linecap="round" stroke-miterlimit="4" stroke-width="0.75" d="M32 16.54v-8.007M28.444 11.378h7.111"></path>
<path fill="#fff" style="fill: var(--color2, #fff)" stroke-linejoin="round" stroke-linecap="butt" stroke-miterlimit="4" stroke-width="0.75" stroke="#000" d="M32 35.556c0 0 6.4-10.667 4.267-14.933 0 0-1.422-3.556-4.267-3.556s-4.267 3.556-4.267 3.556c-2.133 4.267 4.267 14.933 4.267 14.933"></path>
<path fill="#fff" style="fill: var(--color2, #fff)" stroke-linejoin="round" stroke-linecap="butt" stroke-miterlimit="4" stroke-width="0.75" stroke="#000" d="M16.356 52.622c7.822 4.978 22.044 4.978 29.867 0v-9.956c0 0 12.8-6.4 8.533-14.933-5.689-9.244-19.2-4.978-22.756 5.689v0c-4.978-10.667-18.489-14.933-22.756-5.689-4.267 8.533 7.111 14.222 7.111 14.222v10.667"></path>
<path stroke-linejoin="miter" stroke-linecap="round" stroke-miterlimit="4" stroke-width="0.75" d="M16.356 42.667c7.822-4.267 22.044-4.267 29.867 0"></path>
<path stroke-linejoin="miter" stroke-linecap="round" stroke-miterlimit="4" stroke-width="0.75" d="M16.356 47.644c7.822-4.267 22.044-4.267 29.867 0"></path>
<path stroke-linejoin="miter" stroke-linecap="round" stroke-miterlimit="4" stroke-width="0.75" d="M16.356 52.622c7.822-4.267 22.044-4.267 29.867 0"></path>
</symbol>
<symbol id="icon-knight-black" viewBox="0 0 64 64">
<path fill="#000" style="fill: var(--color1, #000); stroke: var(--color1, #000)" stroke="#000" stroke-linejoin="round" stroke-linecap="round" stroke-miterlimit="4" stroke-width="0.75" d="M31.289 14.222c14.933 1.422 23.467 11.378 22.756 41.244h-32.711c0-12.8 14.222-9.244 11.378-29.867"></path>
<path fill="#000" style="fill: var(--color1, #000); stroke: var(--color1, #000)" stroke="#000" stroke-linejoin="round" stroke-linecap="round" stroke-miterlimit="4" stroke-width="0.75" d="M34.133 25.6c0.54 4.139-7.893 10.482-11.378 12.8-4.267 2.844-4.011 6.172-7.111 5.689-1.482-1.337 2.005-4.324 0-4.267-1.422 0 0.27 1.749-1.422 2.844-1.422 0-5.693 1.422-5.689-5.689 0-2.844 8.533-17.067 8.533-17.067s2.688-2.702 2.844-4.978c-1.038-1.414-0.711-2.844-0.711-4.267 1.422-1.422 4.267 3.556 4.267 3.556h2.844c0 0 1.109-2.833 3.556-4.267 1.422 0 1.422 4.267 1.422 4.267"></path>
<path fill="#fff" style="fill: var(--color2, #fff); stroke: var(--color2, #fff)" stroke="#fff" stroke-linejoin="round" stroke-linecap="butt" stroke-miterlimit="4" stroke-width="0.75" d="M34.916 14.791l-0.64 2.062 0.711 0.213c4.48 1.422 8.036 3.541 11.236 9.6s4.622 14.663 3.911 28.8l-0.071 0.711h3.2l0.071-0.711c0.711-14.308-1.252-23.964-4.622-30.35s-8.235-9.444-13.070-10.183l-0.725-0.142z"></path>
<path fill="#fff" style="fill: var(--color2, #fff); stroke: var(--color2, #fff)" stroke="#fff" stroke-linejoin="round" stroke-linecap="butt" stroke-miterlimit="4" stroke-width="0.75" d="M13.511 36.267c0 0.393-0.318 0.711-0.711 0.711s-0.711-0.318-0.711-0.711v0c0-0.393 0.318-0.711 0.711-0.711s0.711 0.318 0.711 0.711v0z"></path>
<path fill="#fff" style="fill: var(--color2, #fff); stroke: var(--color2, #fff)" stroke="#fff" stroke-linejoin="round" stroke-linecap="butt" stroke-miterlimit="4" stroke-width="0.75" d="M21.689 20.196c0 0 0 0 0.001 0 0.34 0.197 0.138 1.183-0.451 2.204s-1.342 1.688-1.683 1.493h-0c-0-0-0-0-0.001-0-0.34-0.197-0.138-1.183 0.451-2.204s1.342-1.688 1.683-1.493h0z"></path>
</symbol>
<symbol id="icon-knight-white" viewBox="0 0 64 64">
<path fill="#fff" style="fill: var(--color2, #fff)" stroke-linejoin="round" stroke-linecap="round" stroke-miterlimit="4" stroke-width="0.75" stroke="#000" d="M31.289 14.222c14.933 1.422 23.467 11.378 22.756 41.244h-32.711c0-12.8 14.222-9.244 11.378-29.867"></path>
<path fill="#fff" style="fill: var(--color2, #fff)" stroke-linejoin="round" stroke-linecap="round" stroke-miterlimit="4" stroke-width="0.75" stroke="#000" d="M34.133 25.6c0.54 4.139-7.893 10.482-11.378 12.8-4.267 2.844-4.011 6.172-7.111 5.689-1.482-1.337 2.005-4.324 0-4.267-1.422 0 0.27 1.749-1.422 2.844-1.422 0-5.693 1.422-5.689-5.689 0-2.844 8.533-17.067 8.533-17.067s2.688-2.702 2.844-4.978c-1.038-1.414-0.711-2.844-0.711-4.267 1.422-1.422 4.267 3.556 4.267 3.556h2.844c0 0 1.109-2.833 3.556-4.267 1.422 0 1.422 4.267 1.422 4.267"></path>
<path fill="#000" style="fill: var(--color1, #000)" stroke-linejoin="round" stroke-linecap="butt" stroke-miterlimit="4" stroke-width="0.75" stroke="#000" d="M13.511 36.267c0 0.393-0.318 0.711-0.711 0.711s-0.711-0.318-0.711-0.711v0c0-0.393 0.318-0.711 0.711-0.711s0.711 0.318 0.711 0.711v0z"></path>
<path fill="#000" style="fill: var(--color1, #000)" stroke-linejoin="round" stroke-linecap="butt" stroke-miterlimit="4" stroke-width="0.75" stroke="#000" d="M21.689 20.196c0 0 0 0 0.001 0 0.34 0.197 0.138 1.183-0.451 2.204s-1.342 1.688-1.683 1.493h-0c-0-0-0-0-0.001-0-0.34-0.197-0.138-1.183 0.451-2.204s1.342-1.688 1.683-1.493h0z"></path>
</symbol>
<symbol id="icon-pawn-black" viewBox="0 0 64 64">
<path stroke-linejoin="miter" stroke-linecap="round" stroke-miterlimit="4" stroke-width="0.75" d="M32 12.8c-3.143 0-5.689 2.546-5.689 5.689 0 1.266 0.412 2.432 1.109 3.385-2.773 1.593-4.665 4.565-4.665 7.993 0 2.887 1.337 5.461 3.428 7.154-4.267 1.508-10.539 7.893-10.539 19.157h32.711c0-11.264-6.272-17.65-10.539-19.157 2.091-1.692 3.428-4.267 3.428-7.154 0-3.428-1.892-6.4-4.665-7.993 0.697-0.953 1.109-2.119 1.109-3.385 0-3.143-2.546-5.689-5.689-5.689z"></path>
</symbol>
<symbol id="icon-pawn-white" viewBox="0 0 64 64">
<path fill="#fff" style="fill: var(--color2, #fff)" stroke-linejoin="miter" stroke-linecap="round" stroke-miterlimit="4" stroke-width="0.75" stroke="#000" d="M32 12.8c-3.143 0-5.689 2.546-5.689 5.689 0 1.266 0.412 2.432 1.109 3.385-2.773 1.593-4.665 4.565-4.665 7.993 0 2.887 1.337 5.461 3.428 7.154-4.267 1.508-10.539 7.893-10.539 19.157h32.711c0-11.264-6.272-17.65-10.539-19.157 2.091-1.692 3.428-4.267 3.428-7.154 0-3.428-1.892-6.4-4.665-7.993 0.697-0.953 1.109-2.119 1.109-3.385 0-3.143-2.546-5.689-5.689-5.689z"></path>
</symbol>
<symbol id="icon-queen-black" viewBox="0 0 64 64">
<path stroke-linejoin="round" stroke-linecap="butt" stroke-miterlimit="4" stroke-width="0.75" d="M12.8 36.978c12.089-2.133 29.867-2.133 38.4 0l3.556-17.778-10.667 16.356-0.427-20.053-7.396 19.342-4.267-20.622-4.267 20.622-7.396-19.342-0.427 20.053-10.667-16.356 3.556 17.778z"></path>
<path stroke-linejoin="round" stroke-linecap="butt" stroke-miterlimit="4" stroke-width="0.75" d="M11.378 17.067c0 1.571-1.274 2.844-2.844 2.844s-2.844-1.273-2.844-2.844c0-1.571 1.274-2.844 2.844-2.844s2.844 1.274 2.844 2.844z"></path>
<path stroke-linejoin="round" stroke-linecap="butt" stroke-miterlimit="4" stroke-width="0.75" d="M22.756 12.8c0 1.571-1.273 2.844-2.844 2.844s-2.844-1.274-2.844-2.844c0-1.571 1.273-2.844 2.844-2.844s2.844 1.274 2.844 2.844z"></path>
<path stroke-linejoin="round" stroke-linecap="butt" stroke-miterlimit="4" stroke-width="0.75" d="M34.844 11.378c0 1.571-1.273 2.844-2.844 2.844s-2.844-1.274-2.844-2.844c0-1.571 1.273-2.844 2.844-2.844s2.844 1.274 2.844 2.844z"></path>
<path stroke-linejoin="round" stroke-linecap="butt" stroke-miterlimit="4" stroke-width="0.75" d="M46.933 12.8c0 1.571-1.273 2.844-2.844 2.844s-2.844-1.274-2.844-2.844c0-1.571 1.273-2.844 2.844-2.844s2.844 1.274 2.844 2.844z"></path>
<path stroke-linejoin="round" stroke-linecap="butt" stroke-miterlimit="4" stroke-width="0.75" d="M58.311 17.067c0 1.571-1.273 2.844-2.844 2.844s-2.844-1.273-2.844-2.844c0-1.571 1.273-2.844 2.844-2.844s2.844 1.274 2.844 2.844z"></path>
<path stroke-linejoin="round" stroke-linecap="butt" stroke-miterlimit="4" stroke-width="0.75" d="M12.8 36.978c0 2.844 2.133 2.844 3.556 5.689 1.422 2.133 1.422 1.422 0.711 4.978-2.133 1.422-2.133 3.556-2.133 3.556-2.133 2.133 0.711 3.556 0.711 3.556 9.244 1.422 23.467 1.422 32.711 0 0 0 2.844-1.422 0.711-3.556 0 0 0-2.133-2.133-3.556-0.711-3.556-0.711-2.844 0.711-4.978 1.422-2.844 3.556-2.844 3.556-5.689-12.089-2.133-26.311-2.133-38.4 0z"></path>
<path fill="none" stroke="#fff" style="stroke: var(--color2, #fff)" stroke-linejoin="miter" stroke-linecap="round" stroke-miterlimit="4" stroke-width="0.75" d="M12.8 36.978c12.089-2.133 29.867-2.133 38.4 0"></path>
<path fill="none" stroke="#fff" style="stroke: var(--color2, #fff)" stroke-linejoin="miter" stroke-linecap="round" stroke-miterlimit="4" stroke-width="0.75" d="M16.356 42.667c4.978-1.422 26.311-1.422 31.289 0"></path>
<path fill="none" stroke="#fff" style="stroke: var(--color2, #fff)" stroke-linejoin="miter" stroke-linecap="round" stroke-miterlimit="4" stroke-width="0.75" d="M17.067 47.644c8.533-1.422 21.333-1.422 29.867 0"></path>
</symbol>
<symbol id="icon-queen-white" viewBox="0 0 64 64">
<path fill="#fff" style="fill: var(--color2, #fff)" stroke-linejoin="round" stroke-linecap="butt" stroke-miterlimit="4" stroke-width="0.75" stroke="#000" d="M12.8 36.978c12.089-2.133 29.867-2.133 38.4 0l3.556-17.778-10.667 16.356-0.427-20.053-7.396 19.342-4.267-20.622-4.267 20.622-7.396-19.342-0.427 20.053-10.667-16.356 3.556 17.778z"></path>
<path fill="#fff" style="fill: var(--color2, #fff)" stroke-linejoin="round" stroke-linecap="butt" stroke-miterlimit="4" stroke-width="0.75" stroke="#000" d="M11.378 17.067c0 1.571-1.274 2.844-2.844 2.844s-2.844-1.273-2.844-2.844c0-1.571 1.274-2.844 2.844-2.844s2.844 1.274 2.844 2.844z"></path>
<path fill="#fff" style="fill: var(--color2, #fff)" stroke-linejoin="round" stroke-linecap="butt" stroke-miterlimit="4" stroke-width="0.75" stroke="#000" d="M22.756 12.8c0 1.571-1.273 2.844-2.844 2.844s-2.844-1.274-2.844-2.844c0-1.571 1.273-2.844 2.844-2.844s2.844 1.274 2.844 2.844z"></path>
<path fill="#fff" style="fill: var(--color2, #fff)" stroke-linejoin="round" stroke-linecap="butt" stroke-miterlimit="4" stroke-width="0.75" stroke="#000" d="M34.844 11.378c0 1.571-1.273 2.844-2.844 2.844s-2.844-1.274-2.844-2.844c0-1.571 1.273-2.844 2.844-2.844s2.844 1.274 2.844 2.844z"></path>
<path fill="#fff" style="fill: var(--color2, #fff)" stroke-linejoin="round" stroke-linecap="butt" stroke-miterlimit="4" stroke-width="0.75" stroke="#000" d="M46.933 12.8c0 1.571-1.273 2.844-2.844 2.844s-2.844-1.274-2.844-2.844c0-1.571 1.273-2.844 2.844-2.844s2.844 1.274 2.844 2.844z"></path>
<path fill="#fff" style="fill: var(--color2, #fff)" stroke-linejoin="round" stroke-linecap="butt" stroke-miterlimit="4" stroke-width="0.75" stroke="#000" d="M58.311 17.067c0 1.571-1.273 2.844-2.844 2.844s-2.844-1.273-2.844-2.844c0-1.571 1.273-2.844 2.844-2.844s2.844 1.274 2.844 2.844z"></path>
<path fill="#fff" style="fill: var(--color2, #fff)" stroke-linejoin="round" stroke-linecap="butt" stroke-miterlimit="4" stroke-width="0.75" stroke="#000" d="M12.8 36.978c0 2.844 2.133 2.844 3.556 5.689 1.422 2.133 1.422 1.422 0.711 4.978-2.133 1.422-2.133 3.556-2.133 3.556-2.133 2.133 0.711 3.556 0.711 3.556 9.244 1.422 23.467 1.422 32.711 0 0 0 2.844-1.422 0.711-3.556 0 0 0-2.133-2.133-3.556-0.711-3.556-0.711-2.844 0.711-4.978 1.422-2.844 3.556-2.844 3.556-5.689-12.089-2.133-26.311-2.133-38.4 0z"></path>
<path stroke-linejoin="miter" stroke-linecap="round" stroke-miterlimit="4" stroke-width="0.75" d="M16.356 42.667c4.978-1.422 26.311-1.422 31.289 0"></path>
<path stroke-linejoin="miter" stroke-linecap="round" stroke-miterlimit="4" stroke-width="0.75" d="M17.067 47.644c8.533-1.422 21.333-1.422 29.867 0"></path>
</symbol>
<symbol id="icon-rook-black" viewBox="0 0 64 64">
<path stroke-linejoin="round" stroke-linecap="butt" stroke-miterlimit="4" stroke-width="0.75" d="M15.644 19.911v-7.111h5.689v2.844h7.111v-2.844h7.111v2.844h7.111v-2.844h5.689v7.111l-4.267 4.267v17.778l2.844 3.556v5.689h-29.867v-5.689l2.844-3.556v-17.778z"></path>
<path stroke-linejoin="round" stroke-linecap="butt" stroke-miterlimit="4" stroke-width="0.75" d="M12.8 55.467h38.4v-4.267h-38.4v4.267z"></path>
</symbol>
<symbol id="icon-rook-white" viewBox="0 0 64 64">
<path fill="#fff" style="fill: var(--color2, #fff)" stroke-linejoin="round" stroke-linecap="butt" stroke-miterlimit="4" stroke-width="0.75" stroke="#000" d="M15.644 19.911v-7.111h5.689v2.844h7.111v-2.844h7.111v2.844h7.111v-2.844h5.689v7.111l-4.267 4.267v17.778l2.844 3.556v5.689h-29.867v-5.689l2.844-3.556v-17.778z"></path>
<path fill="#fff" style="fill: var(--color2, #fff)" stroke-linejoin="round" stroke-linecap="butt" stroke-miterlimit="4" stroke-width="0.75" stroke="#000" d="M12.8 55.467h38.4v-4.267h-38.4v4.267z"></path>
</symbol>
</defs>
</svg>
