<svg aria-hidden="true" style="position: absolute; width: 0; height: 0; overflow: hidden;" version="1.1" xmlns="http://www.w3.org/2000/svg" xmlns:xlink="http://www.w3.org/1999/xlink">
<defs>
<symbol id="icon-knight" viewBox="0 0 26 32">
<path d="M21.916 24.435c0-0.769-0.626-1.394-1.394-1.394h-14.268c-0.769 0-1.394 0.626-1.394 1.394-0.095 0.847 0.516 1.645 1.394 1.639h14.268c0.877 0.006 1.492-0.792 1.394-1.639z"></path>
<path d="M8.118 19.62c-0.836 0-1.517 0.681-1.517 1.517v1.381h13.572v-1.381c0-0.836-0.681-1.517-1.517-1.517z"></path>
<path d="M17.323 8.434c1.654 2.535 1.754 5.568 1.676 8.482h1.915c0.216-3.3-0.053-9-3.93-11.94-1.401-1.243-4.135-1.99-5.829-1.027 2.692 0.082 4.49 2.086 6.168 4.484z"></path>
<path d="M6.845 14.062c0.819-1.049 1.469-1.685 2.578-1.732 0.684-0.090 1.18-0.156 1.549-1.312 0.043-0.143 0.214-0.222 0.349-0.162 0.644 0.268 1.011 0.617 1.121 1.066 0.214 0.873-0.636 1.889-1.62 3.064-1.033 1.234-2.197 2.624-2.409 4.109h9.993c0.096-3.54 0.462-7.337-1.518-10.37-1.753-2.543-3.953-4.889-6.866-4.074-0.137 0.042-0.282-0.034-0.326-0.17-0.278-0.868-0.849-1.613-1.604-2.109 0.176 0.924 0.221 1.806 0.135 2.632-0.313 0.589-1.479 0.799-1.634 1.748-0.211 0.937-0.59 1.816-1.126 2.612-0.615 0.913-1.049 1.919-1.291 2.992-0.275 1.22 1.486 2.571 2.67 1.708zM7.978 7.658c0.133-0.056 0.286 0.007 0.342 0.141s-0.007 0.286-0.141 0.342l-0.019 0.008c-0.404 0.169-0.681 0.559-0.706 0.995-0.002 0.149-0.13 0.268-0.277 0.258-0.144-0.008-0.255-0.131-0.246-0.276 0.031-0.646 0.446-1.227 1.047-1.468z"></path>
</symbol>
<symbol id="icon-pawn" viewBox="0 0 26 32">
<path d="M16.601 6.041c0 2.027-1.626 3.67-3.631 3.67s-3.631-1.644-3.631-3.67 1.626-3.67 3.631-3.67c2.006 0 3.631 1.644 3.631 3.67z"></path>
<path d="M18.756 23.737h-11.437c-0.628 0-1.139 0.511-1.139 1.139v0.060c0 0.628 0.511 1.139 1.139 1.139h11.438c0.628 0 1.139-0.511 1.139-1.139v-0.060c-0.001-0.629-0.512-1.139-1.14-1.139z"></path>
<path d="M18.459 22.492c0-0.828-0.673-1.501-1.501-1.501h-7.843c-0.828 0-1.501 0.673-1.501 1.501v0.728h10.844z"></path>
<path d="M9.389 20.469l7.293 0.004c-0.043-0.689-0.287-1.294-0.715-1.76-1.519-1.661-1.248-3.925-1.231-6.012h-3.481c-0.004 2.054 0.305 4.331-1.179 5.943-0.424 0.462-0.656 1.076-0.687 1.825z"></path>
<path d="M9.304 12.183h7.466c0.256 0 0.466-0.209 0.466-0.466v-1.026c0-0.256-0.209-0.466-0.466-0.466l-7.466 0.001c-0.256 0-0.466 0.209-0.466 0.466v1.026c0 0.256 0.209 0.465 0.466 0.465z"></path>
</symbol>
<symbol id="icon-queen" viewBox="0 0 26 32">
<path d="M19.895 24.894c0-0.628-0.511-1.139-1.139-1.139h-11.437c-0.628 0-1.139 0.511-1.139 1.139-0.022 0.643 0.494 1.182 1.139 1.181h11.438c0.643 0.001 1.161-0.539 1.138-1.181z"></path>
<path d="M7.616 22.526v0.711h10.844v-0.711c0-0.828-0.673-1.501-1.501-1.501l-7.842 0.001c-0.828 0-1.501 0.673-1.501 1.5z"></path>
<path d="M9.287 20.507l7.498 0.004c-0.049-0.647-0.317-1.26-0.764-1.746-1.518-1.647-1.297-3.893-1.283-5.975h-3.482c-0.004 2.042 0.305 4.305-1.18 5.906-0.47 0.508-0.747 1.146-0.789 1.811z"></path>
<path d="M16.771 10.33h-7.469c-0.256 0-0.466 0.209-0.466 0.466v1.010c0 0.256 0.209 0.466 0.466 0.466h7.468c0.256 0 0.466-0.209 0.466-0.466v-1.010c0.001-0.256-0.208-0.466-0.465-0.466z"></path>
<path d="M15.873 9.808l1.326-2.898-2.375 1.093c-0.127 0.062-0.293-0.002-0.345-0.132l-1.469-3.409-1.42 3.406c-0.052 0.132-0.218 0.197-0.345 0.136l-2.447-1.106 1.288 2.91z"></path>
<path d="M13.005 3.539c0.32 0 0.581-0.262 0.581-0.584s-0.261-0.584-0.581-0.584-0.581 0.262-0.581 0.584 0.261 0.584 0.581 0.584z"></path>
<path d="M18.252 6.296c0.32 0 0.581-0.262 0.581-0.584s-0.261-0.584-0.581-0.584-0.581 0.262-0.581 0.584 0.261 0.584 0.581 0.584z"></path>
<path d="M8.404 5.712c0 0.779-1.163 0.779-1.163 0s1.163-0.779 1.163 0z"></path>
</symbol>
<symbol id="icon-rook" viewBox="0 0 26 32">
<path d="M20.282 24.678c0-0.714-0.581-1.294-1.294-1.294h-11.904c-0.714 0-1.293 0.581-1.293 1.294-0.050 0.747 0.539 1.399 1.293 1.396h11.904c0.754 0.003 1.344-0.649 1.294-1.396z"></path>
<path d="M18.735 21.799c0-0.828-0.673-1.501-1.501-1.501h-8.394c-0.828 0-1.501 0.673-1.501 1.501v1.068h11.395z"></path>
<path d="M9.125 19.777l7.822 0.004c-0.031-0.881-0.255-1.548-0.683-2.036-1.634-1.859-1.386-4.414-1.374-6.762h-3.794c-0.007 2.299 0.336 4.877-1.262 6.685-0.451 0.511-0.683 1.203-0.709 2.109z"></path>
<path d="M17.783 10v-1.332c0-0.256-0.209-0.466-0.466-0.466h-8.682c-0.256 0-0.466 0.209-0.466 0.466v1.332c0 0.256 0.209 0.466 0.466 0.466h8.682c0.257 0 0.466-0.209 0.466-0.466z"></path>
<path d="M16.97 7.685l0.897-1.495v-3.819h-1.674v2.423c0 0.143-0.116 0.258-0.258 0.258h-1.777c-0.143 0-0.258-0.116-0.258-0.258l-0.001-2.423h-1.699v2.423c0 0.143-0.116 0.258-0.258 0.258h-1.866c-0.143 0-0.258-0.116-0.258-0.258l-0.001-2.423h-1.732v3.83l0.744 1.484z"></path>
</symbol>
<symbol id="icon-bishop" viewBox="0 0 26 32">
<path d="M13.041 3.71c0.356 0 0.645-0.301 0.645-0.67s-0.289-0.669-0.645-0.669-0.645 0.301-0.645 0.67 0.29 0.669 0.645 0.669z"></path>
<path d="M15.459 9.439c1.143-1.752 0.060-3.796-1.551-5.067-0.236-0.186-1.43-0.196-1.681-0.014-1.113 0.809-1.902 1.991-2.058 3.083-0.105 0.729 0.057 1.401 0.481 1.998z"></path>
<path d="M18.702 23.69h-11.33c-0.657 0-1.193 0.535-1.193 1.193s0.535 1.192 1.193 1.192h11.331c0.657 0 1.193-0.535 1.193-1.193s-0.536-1.192-1.194-1.192z"></path>
<path d="M18.459 22.399c0-0.828-0.673-1.501-1.501-1.501h-7.843c-0.828 0-1.501 0.673-1.501 1.501v0.773h10.844z"></path>
<path d="M9.389 20.377l7.294 0.004c-0.036-0.744-0.259-1.347-0.666-1.798-1.355-1.505-1.322-3.498-1.291-5.427 0.004-0.225 0.007-0.456 0.009-0.685l-3.48-0.001c0 0.311 0.006 0.629 0.012 0.938 0.036 1.823 0.074 3.708-1.189 5.104-0.428 0.473-0.66 1.1-0.691 1.866z"></path>
<path d="M9.305 11.953h7.466c0.256 0 0.466-0.209 0.466-0.466v-1.067c0-0.256-0.209-0.466-0.466-0.466l-7.466-0.001c-0.256 0-0.466 0.209-0.466 0.466v1.067c-0.001 0.257 0.208 0.467 0.466 0.467z"></path>
</symbol>
<symbol id="icon-king" viewBox="0 0 26 32">
<path d="M18.749 23.774h-11.424c-0.627 0-1.137 0.51-1.137 1.137-0.014 0.636 0.501 1.164 1.137 1.163h11.423c0.636 0.001 1.152-0.527 1.137-1.163 0.001-0.627-0.509-1.137-1.136-1.137z"></path>
<path d="M18.452 22.563c0-0.827-0.672-1.499-1.499-1.499h-7.831c-0.827 0-1.499 0.672-1.499 1.499v0.694h10.83z"></path>
<path d="M9.293 20.544l7.486 0.004c-0.050-0.642-0.316-1.249-0.762-1.731-1.516-1.636-1.296-3.864-1.282-5.932h-3.476c-0.003 2.029 0.304 4.274-1.178 5.865-0.469 0.504-0.745 1.135-0.788 1.794z"></path>
<path d="M17.23 11.902v-0.994c0-0.256-0.208-0.465-0.465-0.465l-7.456-0.001c-0.256 0-0.465 0.208-0.465 0.465v0.994c0 0.256 0.208 0.465 0.465 0.465h7.456c0.256 0.001 0.465-0.207 0.465-0.464z"></path>
<path d="M16.232 9.925c0.499-0.768 1.211-2.089 0.976-3.090-0.101-0.429-0.36-0.757-0.795-1.006-0.706-0.281-1.911-0.402-3.117-0.414v-1.269h1.278c0.143 0 0.258-0.116 0.258-0.258s-0.116-0.258-0.258-0.258h-1.278v-1.002c0-0.143-0.116-0.258-0.258-0.258s-0.258 0.116-0.258 0.258v1.001h-1.279c-0.143 0-0.258 0.116-0.258 0.258s0.116 0.258 0.258 0.258h1.279v1.27c-1.085 0.017-2.112 0.116-2.711 0.26-0.477 0.119-0.844 0.366-1.045 0.748-0.6 1.068 0.219 2.449 0.822 3.499z"></path>
</symbol>
<symbol id="icon-undo" viewBox="0 0 32 32">
<path d="M16 2c-4.418 0-8.418 1.791-11.313 4.687l-4.686-4.687v12h12l-4.485-4.485c2.172-2.172 5.172-3.515 8.485-3.515 6.627 0 12 5.373 12 12 0 3.584-1.572 6.801-4.063 9l2.646 3c3.322-2.932 5.417-7.221 5.417-12 0-8.837-7.163-16-16-16z"></path>
</symbol>
<symbol id="icon-redo" viewBox="0 0 32 32">
<path d="M0 18c0 4.779 2.095 9.068 5.417 12l2.646-3c-2.491-2.199-4.063-5.416-4.063-9 0-6.627 5.373-12 12-12 3.314 0 6.314 1.343 8.485 3.515l-4.485 4.485h12v-12l-4.687 4.687c-2.895-2.896-6.895-4.687-11.313-4.687-8.837 0-16 7.163-16 16z"></path>
</symbol>
<symbol id="icon-user" viewBox="0 0 32 32">
<path d="M18 22.082v-1.649c2.203-1.241 4-4.337 4-7.432 0-4.971 0-9-6-9s-6 4.029-6 9c0 3.096 1.797 6.191 4 7.432v1.649c-6.784 0.555-12 3.888-12 7.918h28c0-4.030-5.216-7.364-12-7.918z"></path>
</symbol>
<symbol id="icon-cross" viewBox="0 0 32 32">
<path d="M31.708 25.708c-0-0-0-0-0-0l-9.708-9.708 9.708-9.708c0-0 0-0 0-0 0.105-0.105 0.18-0.227 0.229-0.357 0.133-0.356 0.057-0.771-0.229-1.057l-4.586-4.586c-0.286-0.286-0.702-0.361-1.057-0.229-0.13 0.048-0.252 0.124-0.357 0.228 0 0-0 0-0 0l-9.708 9.708-9.708-9.708c-0-0-0-0-0-0-0.105-0.104-0.227-0.18-0.357-0.228-0.356-0.133-0.771-0.057-1.057 0.229l-4.586 4.586c-0.286 0.286-0.361 0.702-0.229 1.057 0.049 0.13 0.124 0.252 0.229 0.357 0 0 0 0 0 0l9.708 9.708-9.708 9.708c-0 0-0 0-0 0-0.104 0.105-0.18 0.227-0.229 0.357-0.133 0.355-0.057 0.771 0.229 1.057l4.586 4.586c0.286 0.286 0.702 0.361 1.057 0.229 0.13-0.049 0.252-0.124 0.357-0.229 0-0 0-0 0-0l9.708-9.708 9.708 9.708c0 0 0 0 0 0 0.105 0.105 0.227 0.18 0.357 0.229 0.356 0.133 0.771 0.057 1.057-0.229l4.586-4.586c0.286-0.286 0.362-0.702 0.229-1.057-0.049-0.13-0.124-0.252-0.229-0.357z"></path>
</symbol>
<symbol id="icon-chess-logo" viewBox="0 0 32 32">
<path d="M0 0v32h32v-32h-32zM16 30v-14h-14v-14h14v14h14v14h-14z"></path>
</symbol>
</defs>
</svg>
